<svg width="56" height="56" viewBox="0 0 56 56" fill="none" xmlns="http://www.w3.org/2000/svg">
<g id="Outline/Communication/Envelope">
<path id="Icon" fill-rule="evenodd" clip-rule="evenodd" d="M6.54198 19.491C5.88832 25.5645 5.91745 32.5691 6.82704 38.6179C7.33034 41.9648 10.0619 44.5306 13.4337 44.8237L16.9576 45.13C24.3054 45.7688 31.6947 45.7688 39.0425 45.13L42.5664 44.8237C45.9382 44.5306 48.6698 41.9648 49.1731 38.6179C50.0826 32.5691 50.1118 25.5649 49.4582 19.4914C49.3737 18.7873 49.2786 18.0841 49.1731 17.3822C48.6698 14.0352 45.9382 11.4694 42.5664 11.1763L39.0425 10.87C31.6947 10.2312 24.3054 10.2312 16.9576 10.87L13.4337 11.1763C10.0619 11.4694 7.33034 14.0352 6.82704 17.3822C6.7215 18.084 6.62648 18.7871 6.54198 19.491ZM17.2607 14.3568C24.4068 13.7356 31.5933 13.7356 38.7394 14.3568L42.2633 14.6632C44.0234 14.8162 45.4492 16.1555 45.712 17.9026C45.7393 18.0841 45.7658 18.2656 45.7916 18.4472L32.8159 25.6559C29.8209 27.3198 26.1791 27.3198 23.184 25.6559L10.2085 18.4473C10.2343 18.2656 10.2608 18.0841 10.2881 17.9026C10.5508 16.1555 11.9767 14.8162 13.7368 14.6632L17.2607 14.3568ZM46.2199 22.2131C46.6725 27.5045 46.5032 32.8358 45.712 38.0974C45.4492 39.8445 44.0234 41.1839 42.2633 41.3369L38.7394 41.6432C31.5933 42.2644 24.4068 42.2644 17.2607 41.6432L13.7368 41.3369C11.9767 41.1839 10.5508 39.8445 10.2881 38.0974C9.49692 32.8359 9.32761 27.5046 9.7802 22.2132L21.4843 28.7154C25.5364 30.9666 30.4635 30.9666 34.5157 28.7154L46.2199 22.2131Z" fill="white"/>
</g>
</svg>
