<svg width="56" height="56" viewBox="0 0 56 56" fill="none" xmlns="http://www.w3.org/2000/svg">
<g id="Github" clip-path="url(#clip0_5_92)">
<path id="Vector" d="M27.9965 0C12.537 0 1.61577e-05 12.586 1.61577e-05 28.112C-0.00630001 34.0044 1.83932 39.7498 5.27603 44.5362C8.71274 49.3226 13.5667 52.9079 19.152 54.7855C20.552 55.0445 21.063 54.1765 21.063 53.431C21.063 52.7625 21.0385 50.995 21.0245 48.65C13.237 50.3475 11.592 44.8805 11.592 44.8805C10.3215 41.6325 8.48402 40.768 8.48402 40.768C5.93952 39.025 8.67302 39.06 8.67302 39.06C11.4835 39.2595 12.9605 41.958 12.9605 41.958C15.4595 46.2525 19.516 45.0135 21.112 44.2925C21.364 42.476 22.0885 41.237 22.89 40.5335C16.674 39.823 10.136 37.4115 10.136 26.642C10.136 23.5725 11.228 21.063 13.02 19.096C12.7295 18.3855 11.7705 15.526 13.293 11.6585C13.293 11.6585 15.645 10.9025 20.993 14.539C23.2776 13.9146 25.6351 13.5969 28.0035 13.594C30.372 13.5987 32.7294 13.9177 35.014 14.5425C40.3585 10.906 42.707 11.662 42.707 11.662C44.233 15.533 43.274 18.389 42.987 19.0995C44.7825 21.0665 45.864 23.576 45.864 26.6455C45.864 37.443 39.319 39.8195 33.082 40.516C34.0865 41.384 34.9825 43.099 34.9825 45.7205C34.9825 49.4795 34.9475 52.5105 34.9475 53.431C34.9475 54.1835 35.4515 55.0585 36.8725 54.782C42.4524 52.9 47.3003 49.3133 50.7323 44.5281C54.1642 39.7428 56.0068 34.0007 56 28.112C56 12.586 43.463 0 27.9965 0Z" fill="black"/>
</g>
<defs>
<clipPath id="clip0_5_92">
<rect width="56" height="56" fill="white"/>
</clipPath>
</defs>
</svg>
