<svg width="56" height="56" viewBox="0 0 56 56" fill="none" xmlns="http://www.w3.org/2000/svg">
<g id="Javascript">
<g clip-path="url(#clip0_5_64)">
<path id="Vector" d="M0 0H56V56H0V0Z" fill="#F7DF1E"/>
<path id="Vector_2" d="M14.7245 46.7976L19.0098 44.2041C19.8367 45.67 20.5887 46.9103 22.3928 46.9103C24.122 46.9103 25.2125 46.2339 25.2125 43.6028V25.7095H30.4749V43.6772C30.4749 49.1278 27.2799 51.6088 22.6183 51.6088C18.4085 51.6088 15.965 49.429 14.7245 46.7976ZM33.3333 46.2337L37.6182 43.7529C38.7463 45.5949 40.2124 46.9481 42.8059 46.9481C44.9866 46.9481 46.377 45.8579 46.377 44.3542C46.377 42.5499 44.9485 41.9108 42.5427 40.8586L41.2274 40.2942C37.4305 38.6783 34.9121 36.6483 34.9121 32.363C34.9121 28.4159 37.9192 25.4085 42.6182 25.4085C45.9638 25.4085 48.3696 26.574 50.0986 29.6188L46.0009 32.2503C45.0986 30.634 44.1217 29.995 42.618 29.995C41.0767 29.995 40.0993 30.9724 40.0993 32.2503C40.0993 33.829 41.0767 34.4684 43.332 35.4458L44.6475 36.0095C49.121 37.9269 51.6394 39.8814 51.6394 44.2792C51.6394 49.016 47.9181 51.6095 42.9185 51.6095C38.0319 51.6095 34.8744 49.2787 33.3333 46.2337Z" fill="black"/>
</g>
</g>
<defs>
<clipPath id="clip0_5_64">
<rect width="56" height="56" rx="10" fill="white"/>
</clipPath>
</defs>
</svg>
