<svg width="56" height="56" viewBox="0 0 56 56" fill="none" xmlns="http://www.w3.org/2000/svg">
<g id="Nodejs" clip-path="url(#clip0_5_76)">
<g id="Group">
<path id="Vector" d="M25.4797 0.71091C27.0023 -0.0804374 28.9855 -0.0840118 30.5068 0.71091C38.1603 4.63766 45.8161 8.55826 53.4683 12.4874C54.9076 13.2235 55.8703 14.6779 55.8557 16.1838V39.8086C55.8664 41.3768 54.8085 42.866 53.2901 43.5855C45.6617 47.4906 38.0373 51.4004 30.4103 55.3055C28.8562 56.1124 26.8332 56.0502 25.3277 55.1773C23.0407 53.9735 20.7498 52.7756 18.4626 51.573C17.9953 51.32 17.4684 51.1187 17.1384 50.7072C17.4301 50.3501 17.9517 50.3057 18.3756 50.1498C19.3302 49.8741 20.207 49.4317 21.084 49.0024C21.3057 48.8646 21.5765 48.9174 21.7891 49.0407C23.7447 50.0588 25.6831 51.1065 27.6453 52.1149C28.0639 52.3344 28.4877 52.0431 28.8455 51.8619C36.3312 48.0204 43.8262 44.1933 51.3106 40.3506C51.5879 40.2294 51.7412 39.9621 51.7187 39.6863C51.7239 31.893 51.72 24.0983 51.7213 16.3049C51.753 15.992 51.5536 15.7042 51.2419 15.5761C43.6401 11.6889 36.0421 7.79571 28.4416 3.90748C28.3099 3.82528 28.1539 3.78117 27.9941 3.78096C27.8343 3.78074 27.6781 3.82443 27.5462 3.90629C19.9456 7.79571 12.349 11.6925 4.74847 15.5795C4.43791 15.7078 4.22949 15.9908 4.26645 16.3049C4.26776 24.0983 4.26645 31.893 4.26645 39.6875C4.25327 39.8221 4.28582 39.9571 4.35972 40.0744C4.43363 40.1917 4.54533 40.2855 4.67979 40.3434C6.70804 41.3878 8.73891 42.4248 10.7685 43.4655C11.9118 44.0243 13.3157 44.3564 14.5754 43.9282C15.6871 43.5662 16.4663 42.5362 16.4451 41.4644C16.4556 33.7166 16.4398 25.9675 16.453 18.2208C16.4252 17.8769 16.7845 17.5927 17.1528 17.6251C18.1274 17.6191 19.1032 17.6132 20.0777 17.6275C20.4845 17.6191 20.7645 17.9895 20.7142 18.336C20.7102 26.1329 20.7247 33.93 20.7076 41.7269C20.7102 43.8049 19.77 46.0659 17.6532 47.0827C15.0454 48.3093 11.8222 48.0492 9.24586 46.873C7.01553 45.8622 4.88712 44.6693 2.69638 43.5865C1.174 42.871 0.121384 41.3759 0.1321 39.8088V16.1838C0.116135 14.6468 1.11714 13.1659 2.60125 12.4405C10.2283 8.53224 17.854 4.62098 25.4797 0.71091Z" fill="#8CC84B"/>
<path id="Vector_2" d="M32.1335 17.076C35.4599 16.8816 39.0211 16.9609 42.0144 18.4488C44.332 19.5891 45.6169 21.9822 45.6578 24.3201C45.5931 24.6354 45.23 24.8094 44.8985 24.7877C43.9333 24.7866 42.968 24.7997 42.0029 24.7818C41.5934 24.7961 41.3555 24.4533 41.3041 24.1247C41.0268 23.0061 40.3549 21.8982 39.1954 21.3586C37.4154 20.5494 35.3515 20.5901 33.4105 20.607C31.9935 20.6753 30.4698 20.7867 29.2694 21.5433C28.3477 22.1164 28.0678 23.2734 28.3967 24.2051C28.7069 24.8741 29.5574 25.09 30.2533 25.289C34.2621 26.241 38.5102 26.1462 42.4424 27.3991C44.0705 27.9098 45.6631 28.9028 46.2203 30.4505C46.9492 32.5249 46.6297 35.0044 45.0043 36.6697C43.6862 38.0401 41.7664 38.786 39.8517 39.1911C37.3045 39.7068 34.661 39.7199 32.0742 39.4909C29.6418 39.2391 27.1105 38.6589 25.2328 37.154C23.6271 35.8881 22.8428 33.9155 22.9207 32.0117C22.9392 31.6902 23.2918 31.466 23.631 31.4925C24.6029 31.4853 25.5748 31.4829 26.5467 31.4936C26.9349 31.4684 27.2227 31.7731 27.2426 32.1053C27.422 33.1711 27.8631 34.2897 28.8866 34.9216C30.8619 36.0787 33.3405 35.9995 35.6023 36.0318C37.4762 35.9564 39.5796 35.9335 41.1088 34.809C41.9156 34.1675 42.1546 33.0944 41.9366 32.1712C41.7004 31.3918 40.8024 31.0286 40.0313 30.7911C36.0738 29.6544 31.7783 30.0668 27.8592 28.7814C26.2681 28.2709 24.7295 27.3056 24.1183 25.8214C23.2653 23.7208 23.6561 21.1225 25.4519 19.5134C27.2028 17.9129 29.7304 17.2967 32.1335 17.076Z" fill="#8CC84B"/>
</g>
</g>
<defs>
<clipPath id="clip0_5_76">
<rect width="56" height="56" fill="white"/>
</clipPath>
</defs>
</svg>
