<svg width="56" height="56" viewBox="0 0 56 56" fill="none" xmlns="http://www.w3.org/2000/svg">
<g id="React" clip-path="url(#clip0_5_88)">
<path id="Vector" d="M28 33.0073C30.7668 33.0073 33.0097 30.7644 33.0097 27.9977C33.0097 25.2309 30.7668 22.988 28 22.988C25.2332 22.988 22.9903 25.2309 22.9903 27.9977C22.9903 30.7644 25.2332 33.0073 28 33.0073Z" fill="#53C1DE"/>
<path id="Vector_2" d="M10.0535 37.7897L10.0467 37.7874C6.89589 36.7085 4.08836 35.2583 2.03667 33.5706C0.0270041 31.9174 -1.5 29.8261 -1.5 27.455C-1.5 25.1479 -0.0525541 23.1409 1.87028 21.5563C3.82542 19.9452 6.50517 18.5674 9.53083 17.5186C9.77923 17.4299 10.0332 17.343 10.2912 17.2583C10.256 17.0896 10.2217 16.9208 10.1882 16.7512L10.1875 16.7478C9.56168 13.5436 9.45021 10.5669 9.91781 8.11133C10.3813 5.67762 11.4636 3.53964 13.4208 2.40272C15.4523 1.21929 17.957 1.37152 20.4076 2.24566C22.8536 3.11815 25.4728 4.78097 28.0259 7.03186C28.1555 6.91596 28.2867 6.80088 28.4195 6.68715C30.8845 4.54037 33.4061 2.95654 35.7656 2.13559C38.1072 1.32091 40.4986 1.19396 42.4623 2.32149L42.4669 2.32413C44.4955 3.49853 45.6128 5.74031 46.0794 8.299C46.5455 10.8554 46.4132 13.957 45.7341 17.2989C45.8945 17.351 46.0545 17.4036 46.2139 17.4567L46.2211 17.4591L46.2282 17.4615C49.3085 18.5209 52.0459 19.9085 54.045 21.5263C56.005 23.1124 57.5 25.1286 57.5 27.455C57.5 29.8662 55.9305 31.9635 53.8605 33.6134C51.806 35.2509 49.0102 36.657 45.8542 37.7267C45.8652 37.7797 45.8761 37.8326 45.8869 37.8856L45.8889 37.8949C46.538 41.1774 46.6313 44.2513 46.1291 46.7893C45.6324 49.3 44.5004 51.5073 42.4983 52.6635L10.0535 37.7897ZM10.0535 37.7897L10.0603 37.792M10.0535 37.7897L10.0603 37.792M10.0603 37.792C10.1002 37.8052 10.1405 37.8186 10.181 37.8321C10.2032 37.8394 10.2256 37.8469 10.248 37.8543C10.2012 38.0737 10.1558 38.2938 10.1116 38.5158L10.1102 38.523M10.0603 37.792L10.1102 38.523M13.9557 16.0123C12.9267 10.718 13.6057 6.72796 15.3347 5.73396C17.1335 4.68616 21.0764 6.12854 25.271 9.75521C24.9311 10.1222 24.5961 10.4935 24.2661 10.8692M13.9557 16.0123C13.9657 16.0595 13.9758 16.1067 13.9858 16.1539C14.0969 16.6759 14.2078 17.1972 14.3383 17.7086M13.9557 16.0123L15.4281 15.7261C15.4273 15.7218 15.4264 15.7174 15.4256 15.713M13.9557 16.0123L15.4227 15.6996C15.4237 15.7041 15.4246 15.7086 15.4256 15.713M14.3383 17.7086C16.7613 17.1713 19.2164 16.791 21.6883 16.57M14.3383 17.7086L15.7917 17.3377C15.6771 16.8884 15.5781 16.429 15.4738 15.9397M14.3383 17.7086L14.0136 16.2442C14.4991 16.1365 14.9859 16.035 15.4738 15.9397M21.6883 16.57C23.0185 14.6752 24.4664 12.8662 26.0236 11.1536L25.3663 11.8696C25.2396 11.7533 25.1291 11.65 25.0262 11.5536C24.8633 11.4012 24.7191 11.2663 24.5588 11.1252L24.5556 11.1223C24.4588 11.0367 24.3623 10.9523 24.2661 10.8692M21.6883 16.57L21.5547 15.0759C21.3241 15.0965 21.0937 15.1185 20.8634 15.1418M21.6883 16.57L20.4606 15.7081C20.5937 15.5185 20.728 15.3298 20.8634 15.1418M24.2661 10.8692C23.0639 12.2378 21.9284 13.6636 20.8634 15.1418M24.2661 10.8692C22.3146 9.18564 20.4709 8.04207 18.9564 7.42795C17.2578 6.73919 16.3708 6.86636 16.0897 7.03011L16.0823 7.0344L16.0823 7.03438C15.8512 7.16722 15.3388 7.78814 15.0956 9.47464C14.8689 11.0457 14.9358 13.187 15.4256 15.713M20.8634 15.1418C19.0554 15.3249 17.257 15.5911 15.4738 15.9397M15.4738 15.9397C15.4665 15.9055 15.4592 15.8712 15.4519 15.8368C15.4432 15.7957 15.4344 15.7545 15.4256 15.713M10.1102 38.523L10.1088 38.5303M10.1102 38.523L10.1088 38.5303M10.1088 38.5303C9.51139 41.6896 9.42551 44.6159 9.91412 47.031C10.3995 49.4304 11.5002 51.5204 13.4459 52.6426M10.1088 38.5303L27.9436 48.1904M27.9436 48.1904L27.9381 48.1952C25.4187 50.4009 22.8014 52.0186 20.3508 52.8521C17.9265 53.6767 15.4479 53.7986 13.4459 52.6426M27.9436 48.1904C27.9953 48.1447 28.0471 48.0987 28.0989 48.0524C28.2675 48.2023 28.4349 48.3489 28.5999 48.4924L28.6063 48.4979M27.9436 48.1904L28.6063 48.4979M13.4459 52.6426L14.196 51.3436L13.4468 52.6431C13.4465 52.643 13.4462 52.6428 13.4459 52.6426ZM28.6063 48.4979C31.0428 50.5931 33.5363 52.1288 35.8733 52.9127M28.6063 48.4979L35.8733 52.9127M35.8733 52.9127C38.1941 53.6913 40.5561 53.7852 42.4981 52.6636L35.8733 52.9127ZM20.9157 39.9031C21.9928 41.3907 23.1389 42.8269 24.35 44.2071L23.6182 44.8462C22.136 46.0609 20.4727 47.0398 18.6867 47.7461L18.639 47.765L18.5926 47.7871C17.7911 48.1693 16.8783 48.2207 16.0559 47.9356C15.7815 47.7202 15.3329 47.0714 15.0987 45.5889C14.8578 44.0645 14.9035 41.9822 15.3722 39.5052C15.3957 39.3868 15.4195 39.269 15.4436 39.1517C17.2519 39.4913 19.0742 39.7436 20.9157 39.9031ZM35.15 15.1452C34.0918 13.6644 32.9626 12.2358 31.7665 10.8644C31.8197 10.8172 31.873 10.7702 31.9267 10.7231C33.8718 9.03135 35.6948 7.90469 37.1702 7.31795C38.7494 6.68986 39.55 6.82108 39.7871 6.95738L39.7875 6.95761C40.073 7.12168 40.6262 7.82748 40.8767 9.63869C41.1003 11.255 41.0287 13.4214 40.541 15.9558C38.7579 15.6009 36.9589 15.3304 35.15 15.1452ZM26.1698 10.5691L25.6877 10.1224C25.8162 10.2386 25.945 10.3591 26.0755 10.4811C26.1068 10.5104 26.1382 10.5397 26.1698 10.5691ZM28.1974 40.214C28.1576 40.2616 28.1177 40.3091 28.0776 40.3565C28.0368 40.3092 27.996 40.2619 27.9554 40.2145C28.0361 40.2144 28.1167 40.2143 28.1974 40.214ZM28.0926 14.7772C28.0457 14.7771 27.9988 14.7771 27.9519 14.7772C27.9754 14.7498 27.999 14.7224 28.0225 14.6951C28.0459 14.7225 28.0693 14.7498 28.0926 14.7772ZM16.9541 33.8224C16.9658 33.8425 16.9774 33.8627 16.9891 33.8828L16.992 33.8878C17.0198 33.9353 17.0477 33.9828 17.0756 34.0303C17.0146 34.0196 16.9536 34.0088 16.8925 33.9978C16.9129 33.9394 16.9334 33.8809 16.9541 33.8224ZM16.9735 21.1507C16.9668 21.1623 16.9601 21.1738 16.9534 21.1854C16.944 21.1585 16.9345 21.1316 16.9251 21.1047C16.9529 21.0995 16.9807 21.0944 17.0085 21.0893C16.9968 21.1098 16.9851 21.1302 16.9735 21.1507ZM23.8448 34.7594C22.2891 32.4333 20.8853 30.009 19.6423 27.5017C20.8749 25.0003 22.2686 22.5817 23.8148 20.261C26.6021 20.0852 29.3976 20.0851 32.1849 20.2607C32.9491 21.4187 33.6828 22.598 34.3848 23.8016C35.0843 25.0061 35.7495 26.2302 36.3796 27.4724C35.1307 29.9763 33.7369 32.4053 32.2052 34.747C30.8436 34.8304 29.4343 34.8683 28.0047 34.8683C26.5786 34.8683 25.1924 34.8306 23.8448 34.7594ZM39.1063 21.118C39.0937 21.154 39.0809 21.19 39.0682 21.226C39.0488 21.1924 39.0295 21.1589 39.0101 21.1254C39.0045 21.1158 38.999 21.1062 38.9934 21.0966C39.0311 21.1037 39.0687 21.1109 39.1063 21.118ZM38.9639 33.9546C39.015 33.8663 39.0658 33.7779 39.1165 33.6894C39.1436 33.7632 39.1705 33.837 39.1973 33.911C39.1195 33.9257 39.0417 33.9403 38.9639 33.9546ZM35.1903 39.8974C37.0304 39.721 38.8603 39.4527 40.6733 39.0936C41.1451 41.2596 41.2223 43.4932 40.9008 45.6872L40.8934 45.7379L40.8895 45.789C40.854 46.2479 40.7248 46.6947 40.5099 47.1017C40.317 47.4672 40.0585 47.7937 39.7479 48.0651C39.4252 48.1941 38.6411 48.2574 37.2413 47.7199C35.8 47.1666 34.0193 46.0874 32.1098 44.45C32.0196 44.3716 31.9298 44.2928 31.8403 44.2136C33.0269 42.8307 34.1449 41.3902 35.1903 39.8974ZM11.2899 22.5691L11.2945 22.5675C11.436 22.5177 11.5787 22.4689 11.7224 22.4211C12.3106 24.1459 12.9774 25.843 13.7207 27.5071C12.9667 29.1994 12.2885 30.9296 11.6904 32.6862C9.46416 31.9803 7.03707 30.8962 5.34033 29.5492L5.30162 29.5184L5.26097 29.4903C4.88175 29.228 4.55971 28.8915 4.31438 28.501C4.0968 28.1548 3.94356 27.7726 3.86157 27.3728C3.88461 27.2609 3.95874 27.0565 4.17996 26.7545C4.46633 26.3636 4.93192 25.9037 5.59918 25.4069C6.93154 24.415 8.89534 23.4035 11.2899 22.5691ZM42.3118 27.4458C43.0561 25.8084 43.7158 24.1387 44.298 22.4432C44.3636 22.4648 44.429 22.4864 44.4942 22.5082C46.9396 23.3485 48.9606 24.3747 50.3377 25.3806C51.0284 25.8851 51.5126 26.3523 51.811 26.7488C52.1184 27.1572 52.148 27.3806 52.148 27.4316C52.148 27.5241 52.1009 27.7871 51.7675 28.2302C51.4423 28.6626 50.9186 29.1653 50.1772 29.7022C48.7909 30.7063 46.7989 31.7186 44.3941 32.5559C43.7828 30.8201 43.0879 29.1148 42.3118 27.4458Z" fill="#53C1DE" stroke="black" stroke-width="3"/>
</g>
<defs>
<clipPath id="clip0_5_88">
<rect width="56" height="56" fill="white"/>
</clipPath>
</defs>
</svg>
