<svg width="72" height="72" viewBox="0 0 72 72" fill="none" xmlns="http://www.w3.org/2000/svg">
<g id="Spotify_1_">
<path id="Spotify" fill-rule="evenodd" clip-rule="evenodd" d="M36 -0.00592041C16.2 -0.00592041 0 16.1941 0 35.9941C0 55.7941 16.2 71.9941 36 71.9941C55.8 71.9941 72 55.7941 72 35.9941C72 16.1941 55.98 -0.00592041 36 -0.00592041ZM52.56 52.0141C51.84 53.0941 50.58 53.4541 49.5 52.7341C41.04 47.5141 30.42 46.4341 17.82 49.3141C16.56 49.6741 15.48 48.7741 15.12 47.6941C14.76 46.4341 15.66 45.3541 16.74 44.9941C29.1991 42.2072 40.1651 43.0036 49.0942 47.5193C50.8412 48.4028 53.2195 49.4971 52.7792 51.4046C52.7307 51.6145 52.657 51.8201 52.56 52.0141ZM56.88 42.1141C55.98 43.3741 54.36 43.9141 53.1 43.0141C43.38 37.0741 28.62 35.2741 17.28 38.8741C15.84 39.2341 14.22 38.5141 13.86 37.0741C13.5 35.6341 14.22 34.0141 15.66 33.6541C28.8 29.6941 45 31.6741 56.16 38.5141C57.24 39.0541 57.78 40.8541 56.88 42.1141ZM57.24 32.0341C45.72 25.1941 26.46 24.4741 15.48 27.8941C13.68 28.4341 11.88 27.3541 11.34 25.7341C10.8 23.9341 11.88 22.1341 13.5 21.5941C26.28 17.8141 47.34 18.5341 60.66 26.4541C62.28 27.3541 62.82 29.5141 61.92 31.1341C61.02 32.3941 58.86 32.9341 57.24 32.0341Z" fill="#10BC4C"/>
</g>
</svg>
