<svg width="47" height="47" viewBox="0 0 47 47" fill="none" xmlns="http://www.w3.org/2000/svg">
<g id="Multimedia / start">
<path id="Vector" d="M36.3075 17.625L17.39 6.77583C16.3663 6.18473 15.2045 5.87507 14.0224 5.87832C12.8404 5.88157 11.6802 6.1976 10.6598 6.79432C9.63945 7.39104 8.79517 8.24718 8.21274 9.2758C7.63032 10.3044 7.3305 11.4688 7.34374 12.6508V34.4275C7.34374 36.2038 8.04937 37.9073 9.3054 39.1633C10.5614 40.4194 12.265 41.125 14.0412 41.125C15.2171 41.123 16.3718 40.8124 17.39 40.2242L36.3075 29.375C37.324 28.7867 38.1679 27.9414 38.7546 26.924C39.3413 25.9066 39.6501 24.7528 39.6501 23.5783C39.6501 22.4039 39.3413 21.2501 38.7546 20.2326C38.1679 19.2152 37.324 18.37 36.3075 17.7817V17.625ZM34.3492 25.8304L15.4317 36.8362C15.0077 37.0765 14.5286 37.2029 14.0412 37.2029C13.5539 37.2029 13.0748 37.0765 12.6508 36.8362C12.228 36.5921 11.8769 36.241 11.6329 35.8182C11.3888 35.3954 11.2603 34.9157 11.2604 34.4275V12.5725C11.2603 12.0843 11.3888 11.6046 11.6329 11.1818C11.8769 10.759 12.228 10.4079 12.6508 10.1638C13.0766 9.9271 13.5542 9.79928 14.0412 9.79167C14.528 9.80166 15.005 9.92932 15.4317 10.1638L34.3492 21.0913C34.7721 21.3353 35.1234 21.6863 35.3676 22.1092C35.6118 22.532 35.7404 23.0117 35.7404 23.5C35.7404 23.9883 35.6118 24.468 35.3676 24.8908C35.1234 25.3137 34.7721 25.6647 34.3492 25.9087V25.8304Z" fill="#10BC4C"/>
</g>
</svg>
