<svg width="56" height="56" viewBox="0 0 56 56" fill="none" xmlns="http://www.w3.org/2000/svg">
<g id="Typescript">
<g clip-path="url(#clip0_5_72)">
<path id="Vector" d="M0 28V56H56V0H0V28ZM33.9803 45.794C34.2323 45.6517 35.1727 45.108 36.0617 44.5923L37.6717 43.659L38.01 44.1583C38.4813 44.877 39.5103 45.864 40.1333 46.193C41.9207 47.1357 44.373 47.0027 45.5817 45.9177C45.8115 45.7246 45.9962 45.4836 46.1227 45.2115C46.2493 44.9393 46.3147 44.6428 46.3143 44.3427L46.312 44.233V44.2377C46.312 43.589 46.2303 43.3043 45.892 42.8143C45.458 42.1937 44.569 41.671 42.0443 40.5743C39.1557 39.3307 37.912 38.5583 36.7733 37.331C36.0733 36.5353 35.5536 35.5976 35.2497 34.5823L35.2357 34.531C35.0233 33.74 34.9697 31.7567 35.1377 30.9587C35.7327 28.1657 37.8397 26.222 40.88 25.6433C41.867 25.4567 44.1607 25.5267 45.129 25.767C46.5523 26.1217 47.635 26.7563 48.6313 27.7877C49.147 28.3383 49.9123 29.3417 49.973 29.5843C49.9917 29.6543 47.5557 31.2877 46.081 32.2047C46.0273 32.2397 45.8127 32.0087 45.5747 31.654C44.8513 30.604 44.0977 30.1513 42.9427 30.072C41.244 29.9553 40.152 30.8443 40.1613 32.3283L40.159 32.4147C40.159 32.767 40.2477 33.0983 40.404 33.3877L40.3993 33.376C40.7727 34.1483 41.468 34.6127 43.6427 35.553C47.6537 37.2797 49.3687 38.416 50.435 40.033C51.625 41.8367 51.8933 44.7183 51.0837 46.8603C50.197 49.189 47.992 50.771 44.8887 51.2937C43.9297 51.464 41.6547 51.4383 40.6233 51.2517C38.374 50.8503 36.2413 49.7397 34.9253 48.2813C34.4097 47.7143 33.404 46.228 33.467 46.123C33.6287 45.9993 33.8004 45.8893 33.9803 45.794ZM12.2687 28.1517C12.2687 26.9057 12.2943 25.865 12.3293 25.8417C12.3573 25.8043 16.793 25.7857 22.169 25.795L31.9573 25.823L31.983 28.1073L32.0017 30.401H24.71V51.1117H19.5533V30.401H12.2687V28.1517Z" fill="#1677C7"/>
</g>
</g>
<defs>
<clipPath id="clip0_5_72">
<rect width="56" height="56" rx="10" fill="white"/>
</clipPath>
</defs>
</svg>
