<svg width="56" height="56" viewBox="0 0 56 56" fill="none" xmlns="http://www.w3.org/2000/svg">
<g id="Vscode">
<path id="Vector" d="M40.0604 3.41839V3.41861C39.5745 3.09508 38.8959 3.08327 38.3911 3.54045L18.4026 21.6591L8.96329 14.5116C8.59754 14.2347 8.08763 14.2518 7.74113 14.5528L2.86016 18.7935C2.42113 19.175 2.41391 19.8542 2.84485 20.2449L11.4037 28.0028L2.84485 35.7608C2.41391 36.1515 2.42113 36.8307 2.86016 37.2122L7.74113 41.4529C8.08763 41.7539 8.59732 41.771 8.96329 41.494L18.4503 34.3899L38.3911 52.4652C38.8959 52.9224 39.5769 52.9106 40.0604 52.587V52.5879L53.4732 45.0238V10.4733L40.0604 3.41839ZM40.0604 38.0575L26.7805 28.0028L40.0604 17.9458V38.0575Z" fill="#3193F3"/>
<path id="Vector_2" d="M6.21467 35.7604L14.7741 28.0028L6.21467 20.2453C5.7833 19.8544 5.79008 19.1737 6.23042 18.7941L10.1373 15.3996L8.96458 14.5121C8.59839 14.2358 8.08849 14.2516 7.74242 14.5526L2.86058 18.7941C2.42024 19.1739 2.41346 19.8544 2.84483 20.2453L11.4043 28.0028L2.84483 35.7604C2.41346 36.1513 2.42024 36.832 2.86058 37.2116L7.74242 41.4531C8.08849 41.7541 8.59839 41.7699 8.96458 41.4936L10.1441 40.6107L6.23042 37.2116C5.79008 36.8318 5.7833 36.1513 6.21467 35.7604Z" fill="#35B1FC"/>
<path id="Vector_3" d="M40.0595 3.41842C39.5743 3.09489 38.8957 3.08373 38.3902 3.53961L37.851 4.02939L50.1038 10.4727V45.0229L37.8195 51.9492L38.3902 52.4659C38.8957 52.922 39.5765 52.9106 40.0595 52.5871L53.4739 45.0229V10.4727L40.0595 3.41842Z" fill="#307FED"/>
<g id="Group">
<path id="Vector_4" d="M53.8805 9.69894L40.4801 2.65059C39.6218 2.11794 38.5564 2.21047 37.8033 2.89231L18.3527 20.5233L9.49156 13.8141C8.79966 13.2904 7.8225 13.3232 7.16735 13.8922L2.28638 18.1328C1.45206 18.8576 1.4385 20.1508 2.25728 20.893L10.1008 28.0026L2.25728 35.1124C1.43828 35.8547 1.45206 37.1477 2.28638 37.8726L7.16735 42.1135C7.82272 42.6825 8.79988 42.7151 9.49156 42.1914L18.352 35.4821L37.8033 53.1136C38.5044 53.7482 39.5588 53.9017 40.4473 53.3702C40.5258 53.3312 53.8263 45.8288 53.9026 45.7857C54.1778 45.6306 54.3478 45.3392 54.3478 45.0236V10.4733C54.3482 10.1485 54.1682 9.85031 53.8805 9.69894ZM8.435 40.7964C8.39956 40.8236 8.3486 40.8218 8.31491 40.7925L3.43394 36.5518C3.39063 36.5142 3.38997 36.4477 3.43263 36.4094L11.4037 29.1841L17.0325 34.2864L8.435 40.7964ZM39.1856 51.9291C39.1158 51.9111 39.0456 51.877 38.9788 51.8168C37.4133 50.3976 4.98575 21.0044 3.43263 19.5965C3.38975 19.5578 3.39085 19.4913 3.43394 19.4539L8.31491 15.2132C8.34838 15.1837 8.39935 15.1819 8.435 15.209C8.88038 15.5463 38.8157 38.2121 39.1853 38.4923V51.9291H39.1856ZM39.1856 36.2974L28.2306 28.0026L39.1856 19.7061V36.2974ZM39.1856 17.5107L26.7809 26.9049L19.7724 21.5985L38.9784 4.18928C39.0482 4.12606 39.1184 4.0915 39.1853 4.07444V17.5107H39.1856ZM52.5982 44.5123L40.9356 51.0895V4.86741L52.5982 11.0018V44.5123Z" fill="#5F266D"/>
<path id="Vector_5" d="M48.9473 24.3725C49.4305 24.3725 49.8223 23.9807 49.8223 23.4975V21.7525C49.8223 21.2693 49.4305 20.8775 48.9473 20.8775C48.464 20.8775 48.0723 21.2693 48.0723 21.7525V23.4975C48.0723 23.9807 48.464 24.3725 48.9473 24.3725ZM48.9473 19.3463C49.4305 19.3463 49.8223 18.9545 49.8223 18.4713V14.315C49.8223 13.8318 49.4305 13.44 48.9473 13.44C48.464 13.44 48.0723 13.8318 48.0723 14.315V18.4713C48.0723 18.9545 48.464 19.3463 48.9473 19.3463Z" fill="#5F266D"/>
</g>
</g>
</svg>
